<mxfile host="app.diagrams.net" modified="2023-06-17T16:51:53.768Z" agent="Mozilla/5.0 (X11; Ubuntu; Linux x86_64; rv:109.0) Gecko/20100101 Firefox/114.0" etag="_EZ2cXYPeudmE5Se-wAF" version="21.4.0" type="device">
  <diagram name="Page-1" id="10a91c8b-09ff-31b1-d368-03940ed4cc9e">
    <mxGraphModel dx="1434" dy="685" grid="1" gridSize="10" guides="1" tooltips="1" connect="1" arrows="1" fold="1" page="1" pageScale="1" pageWidth="1100" pageHeight="850" background="none" math="0" shadow="0">
      <root>
        <mxCell id="0" />
        <mxCell id="1" parent="0" />
        <mxCell id="jALM0ebqb3fD8H6m7I_R-2" style="edgeStyle=orthogonalEdgeStyle;rounded=0;orthogonalLoop=1;jettySize=auto;html=1;exitX=0;exitY=0.5;exitDx=0;exitDy=0;entryX=1;entryY=0.5;entryDx=0;entryDy=0;" parent="1" source="62893188c0fa7362-1" target="62893188c0fa7362-2" edge="1">
          <mxGeometry relative="1" as="geometry">
            <mxPoint x="340" y="265" as="targetPoint" />
          </mxGeometry>
        </mxCell>
        <mxCell id="62893188c0fa7362-1" value="Database" style="whiteSpace=wrap;html=1;rounded=1;shadow=1;labelBackgroundColor=none;strokeWidth=1;fontFamily=Verdana;fontSize=12;align=center;" parent="1" vertex="1">
          <mxGeometry x="500" y="225" width="120" height="60" as="geometry" />
        </mxCell>
        <mxCell id="jALM0ebqb3fD8H6m7I_R-1" style="edgeStyle=orthogonalEdgeStyle;rounded=0;orthogonalLoop=1;jettySize=auto;html=1;exitX=1;exitY=0.5;exitDx=0;exitDy=0;entryX=0;entryY=0.5;entryDx=0;entryDy=0;" parent="1" source="62893188c0fa7362-2" target="62893188c0fa7362-1" edge="1">
          <mxGeometry relative="1" as="geometry" />
        </mxCell>
        <mxCell id="jALM0ebqb3fD8H6m7I_R-4" style="edgeStyle=orthogonalEdgeStyle;rounded=0;orthogonalLoop=1;jettySize=auto;html=1;exitX=0.25;exitY=1;exitDx=0;exitDy=0;entryX=0.5;entryY=0;entryDx=0;entryDy=0;" parent="1" source="62893188c0fa7362-2" target="62893188c0fa7362-12" edge="1">
          <mxGeometry relative="1" as="geometry">
            <Array as="points">
              <mxPoint x="250" y="375" />
              <mxPoint x="130" y="375" />
            </Array>
          </mxGeometry>
        </mxCell>
        <mxCell id="jALM0ebqb3fD8H6m7I_R-9" style="edgeStyle=orthogonalEdgeStyle;rounded=0;orthogonalLoop=1;jettySize=auto;html=1;exitX=0.75;exitY=1;exitDx=0;exitDy=0;" parent="1" source="62893188c0fa7362-2" target="jALM0ebqb3fD8H6m7I_R-3" edge="1">
          <mxGeometry relative="1" as="geometry">
            <Array as="points">
              <mxPoint x="310" y="375" />
              <mxPoint x="430" y="375" />
            </Array>
          </mxGeometry>
        </mxCell>
        <mxCell id="jALM0ebqb3fD8H6m7I_R-11" style="edgeStyle=orthogonalEdgeStyle;rounded=0;orthogonalLoop=1;jettySize=auto;html=1;exitX=0.5;exitY=1;exitDx=0;exitDy=0;entryX=0.5;entryY=0;entryDx=0;entryDy=0;" parent="1" source="62893188c0fa7362-2" target="62893188c0fa7362-13" edge="1">
          <mxGeometry relative="1" as="geometry" />
        </mxCell>
        <mxCell id="62893188c0fa7362-2" value="&lt;span&gt;Server&lt;/span&gt;" style="whiteSpace=wrap;html=1;rounded=1;shadow=1;labelBackgroundColor=none;strokeWidth=1;fontFamily=Verdana;fontSize=12;align=center;" parent="1" vertex="1">
          <mxGeometry x="220" y="225" width="120" height="60" as="geometry" />
        </mxCell>
        <mxCell id="jALM0ebqb3fD8H6m7I_R-5" style="edgeStyle=orthogonalEdgeStyle;rounded=0;orthogonalLoop=1;jettySize=auto;html=1;exitX=0.5;exitY=0;exitDx=0;exitDy=0;entryX=0.25;entryY=1;entryDx=0;entryDy=0;" parent="1" source="62893188c0fa7362-12" target="62893188c0fa7362-2" edge="1">
          <mxGeometry relative="1" as="geometry">
            <Array as="points">
              <mxPoint x="130" y="375" />
              <mxPoint x="250" y="375" />
            </Array>
          </mxGeometry>
        </mxCell>
        <mxCell id="62893188c0fa7362-12" value="Client&lt;br style=&quot;border-color: var(--border-color);&quot;&gt;Interface Web" style="whiteSpace=wrap;html=1;rounded=1;shadow=1;labelBackgroundColor=none;strokeWidth=1;fontFamily=Verdana;fontSize=12;align=center;" parent="1" vertex="1">
          <mxGeometry x="70" y="505" width="120" height="60" as="geometry" />
        </mxCell>
        <mxCell id="jALM0ebqb3fD8H6m7I_R-6" style="edgeStyle=orthogonalEdgeStyle;rounded=0;orthogonalLoop=1;jettySize=auto;html=1;exitX=0.5;exitY=0;exitDx=0;exitDy=0;entryX=0.5;entryY=1;entryDx=0;entryDy=0;" parent="1" source="62893188c0fa7362-13" target="62893188c0fa7362-2" edge="1">
          <mxGeometry relative="1" as="geometry" />
        </mxCell>
        <mxCell id="62893188c0fa7362-13" value="&lt;span&gt;Client&lt;br&gt;Interface Web&lt;br&gt;&lt;/span&gt;" style="whiteSpace=wrap;html=1;rounded=1;shadow=1;labelBackgroundColor=none;strokeWidth=1;fontFamily=Verdana;fontSize=12;align=center;" parent="1" vertex="1">
          <mxGeometry x="220" y="445" width="120" height="60" as="geometry" />
        </mxCell>
        <mxCell id="jALM0ebqb3fD8H6m7I_R-8" style="edgeStyle=orthogonalEdgeStyle;rounded=0;orthogonalLoop=1;jettySize=auto;html=1;exitX=0.5;exitY=0;exitDx=0;exitDy=0;entryX=0.75;entryY=1;entryDx=0;entryDy=0;" parent="1" source="jALM0ebqb3fD8H6m7I_R-3" target="62893188c0fa7362-2" edge="1">
          <mxGeometry relative="1" as="geometry">
            <mxPoint x="310" y="305" as="targetPoint" />
            <Array as="points">
              <mxPoint x="430" y="375" />
              <mxPoint x="310" y="375" />
            </Array>
          </mxGeometry>
        </mxCell>
        <mxCell id="jALM0ebqb3fD8H6m7I_R-3" value="Client&lt;br style=&quot;border-color: var(--border-color);&quot;&gt;Interface Web" style="whiteSpace=wrap;html=1;rounded=1;shadow=1;labelBackgroundColor=none;strokeWidth=1;fontFamily=Verdana;fontSize=12;align=center;" parent="1" vertex="1">
          <mxGeometry x="370" y="505" width="120" height="60" as="geometry" />
        </mxCell>
        <mxCell id="jALM0ebqb3fD8H6m7I_R-12" value="&lt;div&gt;&lt;b&gt;Database:&lt;/b&gt;&lt;b&gt;&lt;br&gt;&lt;/b&gt;&lt;/div&gt;&lt;div&gt;&lt;b&gt;MongoDB&lt;/b&gt;&lt;/div&gt;" style="text;html=1;align=center;verticalAlign=middle;resizable=0;points=[];autosize=1;strokeColor=none;fillColor=none;" parent="1" vertex="1">
          <mxGeometry x="520" y="185" width="80" height="40" as="geometry" />
        </mxCell>
        <mxCell id="jALM0ebqb3fD8H6m7I_R-15" value="&lt;b&gt;WebSockets&lt;/b&gt;" style="text;html=1;align=center;verticalAlign=middle;resizable=0;points=[];autosize=1;strokeColor=none;fillColor=none;" parent="1" vertex="1">
          <mxGeometry x="30" y="410" width="90" height="30" as="geometry" />
        </mxCell>
        <mxCell id="jALM0ebqb3fD8H6m7I_R-16" value="&lt;b&gt;WebSockets&lt;/b&gt;" style="text;html=1;align=center;verticalAlign=middle;resizable=0;points=[];autosize=1;strokeColor=none;fillColor=none;" parent="1" vertex="1">
          <mxGeometry x="235" y="385" width="90" height="30" as="geometry" />
        </mxCell>
        <mxCell id="jALM0ebqb3fD8H6m7I_R-18" value="&lt;b&gt;WebSockets&lt;/b&gt;" style="text;html=1;align=center;verticalAlign=middle;resizable=0;points=[];autosize=1;strokeColor=none;fillColor=none;" parent="1" vertex="1">
          <mxGeometry x="440" y="385" width="90" height="30" as="geometry" />
        </mxCell>
        <mxCell id="oJjyc3auWsRqx49h7ajU-2" value="MongoDB Document Structure" style="swimlane;fontStyle=0;childLayout=stackLayout;horizontal=1;startSize=30;horizontalStack=0;resizeParent=1;resizeParentMax=0;resizeLast=0;collapsible=1;marginBottom=0;whiteSpace=wrap;html=1;" parent="1" vertex="1">
          <mxGeometry x="790" y="260" width="140" height="90" as="geometry" />
        </mxCell>
        <mxCell id="oJjyc3auWsRqx49h7ajU-3" value="_id (String)" style="text;strokeColor=none;fillColor=none;align=left;verticalAlign=middle;spacingLeft=4;spacingRight=4;overflow=hidden;points=[[0,0.5],[1,0.5]];portConstraint=eastwest;rotatable=0;whiteSpace=wrap;html=1;" parent="oJjyc3auWsRqx49h7ajU-2" vertex="1">
          <mxGeometry y="30" width="140" height="30" as="geometry" />
        </mxCell>
        <mxCell id="oJjyc3auWsRqx49h7ajU-4" value="data (String)" style="text;strokeColor=none;fillColor=none;align=left;verticalAlign=middle;spacingLeft=4;spacingRight=4;overflow=hidden;points=[[0,0.5],[1,0.5]];portConstraint=eastwest;rotatable=0;whiteSpace=wrap;html=1;" parent="oJjyc3auWsRqx49h7ajU-2" vertex="1">
          <mxGeometry y="60" width="140" height="30" as="geometry" />
        </mxCell>
        <mxCell id="oJjyc3auWsRqx49h7ajU-8" value="&lt;div&gt;&lt;font style=&quot;font-size: 14px;&quot;&gt;The structure of documents in MongoDB, which will correspond to each&lt;/font&gt;&lt;/div&gt;&lt;div&gt;&lt;font style=&quot;font-size: 14px;&quot;&gt;&amp;nbsp;document in the text editor, will have the following parameters:&lt;/font&gt;&lt;/div&gt;&lt;font style=&quot;font-size: 14px;&quot;&gt;&lt;/font&gt;" style="text;html=1;align=center;verticalAlign=middle;resizable=0;points=[];autosize=1;strokeColor=none;fillColor=none;" parent="1" vertex="1">
          <mxGeometry x="630" y="190" width="460" height="50" as="geometry" />
        </mxCell>
        <mxCell id="J8PiI1CjUBTtBoA0ENkN-1" value="&lt;font style=&quot;font-size: 14px;&quot;&gt;The server stores information such as the connected clients for each document/file.&lt;br&gt;Each client has a web interface, but it does not make local changes; instead, it informs the server about the changes.&lt;br&gt;The server get the changes made in the client&#39;s UI and sends a &quot;receive-changes&quot; to the client, so it can update it&#39;s UI.&lt;br&gt;To handle the concurrency issue, the server will know in real-time the position of the &quot;cursor/insertion point&quot; for each client.&lt;br&gt;The client has a SET_TIMEOUT_MS variable that is defined with 1 second of the period to update the document content in to the database.&lt;br&gt;The database is MongoDB, which is based on the NoSQL database concept, so the documents will be represented as a dictionary/JSON.&lt;br&gt;&lt;br&gt;&lt;/font&gt;" style="text;html=1;align=center;verticalAlign=middle;resizable=0;points=[];autosize=1;strokeColor=none;fillColor=none;" parent="1" vertex="1">
          <mxGeometry x="110" y="40" width="890" height="130" as="geometry" />
        </mxCell>
        <mxCell id="UHYDQzDD1O38qfzUXWCa-1" value="&lt;div&gt;&lt;b&gt;Server:&lt;/b&gt;&lt;/div&gt;&lt;div&gt;&lt;b&gt;NodeJS&lt;br&gt;&lt;/b&gt;&lt;/div&gt;" style="text;html=1;align=center;verticalAlign=middle;resizable=0;points=[];autosize=1;strokeColor=none;fillColor=none;" parent="1" vertex="1">
          <mxGeometry x="245" y="180" width="70" height="40" as="geometry" />
        </mxCell>
        <mxCell id="UHYDQzDD1O38qfzUXWCa-2" value="&lt;div&gt;&lt;b&gt;Client:&lt;/b&gt;&lt;/div&gt;&lt;div&gt;&lt;b&gt;ReactJS&lt;br&gt;&lt;/b&gt;&lt;/div&gt;" style="text;html=1;align=center;verticalAlign=middle;resizable=0;points=[];autosize=1;strokeColor=none;fillColor=none;" parent="1" vertex="1">
          <mxGeometry x="90" y="575" width="70" height="40" as="geometry" />
        </mxCell>
        <mxCell id="UHYDQzDD1O38qfzUXWCa-3" value="&lt;div&gt;&lt;b&gt;Client:&lt;/b&gt;&lt;/div&gt;&lt;div&gt;&lt;b&gt;ReactJS&lt;br&gt;&lt;/b&gt;&lt;/div&gt;" style="text;html=1;align=center;verticalAlign=middle;resizable=0;points=[];autosize=1;strokeColor=none;fillColor=none;" parent="1" vertex="1">
          <mxGeometry x="245" y="515" width="70" height="40" as="geometry" />
        </mxCell>
        <mxCell id="UHYDQzDD1O38qfzUXWCa-4" value="&lt;div&gt;&lt;b&gt;Client:&lt;/b&gt;&lt;/div&gt;&lt;div&gt;&lt;b&gt;ReactJS&lt;br&gt;&lt;/b&gt;&lt;/div&gt;" style="text;html=1;align=center;verticalAlign=middle;resizable=0;points=[];autosize=1;strokeColor=none;fillColor=none;" parent="1" vertex="1">
          <mxGeometry x="395" y="575" width="70" height="40" as="geometry" />
        </mxCell>
      </root>
    </mxGraphModel>
  </diagram>
</mxfile>
